Coordinates
version=1
nRows=13
nColumns=22
inDegrees=yes

Units are S.I. units (second, meters, Newtons, ...)
If the header above contains a line with 'inDegrees', this indicates whether rotational values are in degrees (yes) or radians (no).

endheader
time	pelvis_tilt	pelvis_list	pelvis_rotation	pelvis_tx	pelvis_ty	pelvis_tz	hip_flexion_r	hip_adduction_r	hip_rotation_r	knee_angle_r	ankle_angle_r	subtalar_angle_r	hip_flexion_l	hip_adduction_l	hip_rotation_l	knee_angle_l	ankle_angle_l	subtalar_angle_l	lumbar_extension	lumbar_bending	lumbar_rotation
      0.01000000	      2.18904210	     -0.69355396	      3.49264189	     -1.16307553	      1.08098521	     -0.57814260	     -6.01277046	      2.07917931	     -2.72804492	     -7.54199468	     11.56790909	     -3.57398902	     -3.86970830	     -0.99649462	      0.01783455	    -10.77747249	     13.49492578	     -0.61335994	     -0.97050539	     -1.63576707	     -5.32532166
      0.02000000	      2.17351672	     -0.69831228	      3.51080081	     -1.16287666	      1.08092048	     -0.57825472	     -6.02220054	      2.08151226	     -2.76112638	     -7.51495838	     11.56572540	     -3.57366957	     -3.84303986	     -0.99629672	      0.03001480	    -10.81398637	     13.50749271	     -0.61667517	     -0.98934904	     -1.64516704	     -5.22480440
      0.03000000	      2.14378346	     -0.69753172	      3.50512691	     -1.16266647	      1.08082964	     -0.57837299	     -5.99472085	      2.07121032	     -2.79981186	     -7.52750188	     11.57278307	     -3.57137708	     -3.80619686	     -0.98517464	      0.01655932	    -10.84819918	     13.55877295	     -0.63436962	     -1.00200865	     -1.65564305	     -5.09378622
      0.04000000	      2.10920295	     -0.69579626	      3.50723975	     -1.16243153	      1.08073706	     -0.57852007	     -5.96254381	      2.06000731	     -2.82268816	     -7.54451575	     11.60131159	     -3.56834854	     -3.76638037	     -0.97226204	      0.01748630	    -10.87924343	     13.57921858	     -0.65119321	     -1.01178977	     -1.66606537	     -4.96902908
      0.05000000	      2.07831379	     -0.69156103	      3.51525822	     -1.16217977	      1.08065841	     -0.57869209	     -5.93155740	      2.04630114	     -2.83959960	     -7.56883313	     11.63011100	     -3.56526073	     -3.73700418	     -0.95669962	      0.02783141	    -10.89941944	     13.59106863	     -0.66632695	     -1.02873465	     -1.67712865	     -4.86617938
      0.06000000	      2.05545795	     -0.68462452	      3.52997159	     -1.16190651	      1.08059979	     -0.57889030	     -5.90655870	      2.02995290	     -2.84897262	     -7.60213849	     11.65952756	     -3.56240085	     -3.72575768	     -0.93904854	      0.04709609	    -10.90320489	     13.59727222	     -0.67755205	     -1.05375896	     -1.68729060	     -4.79224809
      0.07000000	      2.04168677	     -0.67868099	      3.55292414	     -1.16162775	      1.08056365	     -0.57912176	     -5.89079519	      2.01536724	     -2.84631205	     -7.63821106	     11.67803354	     -3.56089249	     -3.72791875	     -0.92260517	      0.07449017	    -10.90063903	     13.59851055	     -0.68169144	     -1.08732523	     -1.69139171	     -4.74929218
      0.08000000	      2.03096832	     -0.65185777	      3.57847399	     -1.16133183	      1.08053352	     -0.57936967	     -5.87219345	      1.97780887	     -2.85508553	     -7.69266713	     11.73335637	     -3.55615015	     -3.75733557	     -0.88333000	      0.11194947	    -10.85511963	     13.59202148	     -0.68993171	     -1.12091067	     -1.71884709	     -4.73754991
      0.09000000	      2.02727547	     -0.62327122	      3.61365416	     -1.16105887	      1.08051844	     -0.57964694	     -5.86266302	      1.93909929	     -2.85929377	     -7.74409771	     11.77310522	     -3.54997371	     -3.79551796	     -0.84247664	      0.15883931	    -10.80439435	     13.57565159	     -0.69593767	     -1.16346147	     -1.74301826	     -4.76905080
      0.10000000	      2.02498900	     -0.59263010	      3.65456237	     -1.16080646	      1.08050588	     -0.57994102	     -5.85563122	      1.89846971	     -2.87036700	     -7.79299676	     11.81103608	     -3.54367982	     -3.83935261	     -0.79961980	      0.20696954	    -10.74344529	     13.55893723	     -0.70077252	     -1.20786069	     -1.76648731	     -4.83193868
      0.11000000	      2.01869315	     -0.56235125	      3.69713071	     -1.16058863	      1.08048530	     -0.58024003	     -5.84464819	      1.85748912	     -2.89104274	     -7.83805178	     11.84556841	     -3.53752403	     -3.87791417	     -0.75709886	      0.25266249	    -10.68018397	     13.54267113	     -0.70497781	     -1.25075791	     -1.78681032	     -4.91752015
      0.12000000	      2.00442914	     -0.53484201	      3.74138500	     -1.16041387	      1.08045227	     -0.58053720	     -5.82395690	      1.81892281	     -2.92185446	     -7.88031935	     11.87770802	     -3.53177127	     -3.90374070	     -0.71742673	      0.29426063	    -10.62020466	     13.52975486	     -0.70915012	     -1.28973044	     -1.80293905	     -5.01941536
      0.13000000	      1.98101129	     -0.51035087	      3.78776574	     -1.16028661	      1.08040308	     -0.58083458	     -5.79297950	      1.78301206	     -2.96784726	     -7.91745149	     11.90815138	     -3.52548951	     -3.91148238	     -0.68030540	      0.33519336	    -10.56983951	     13.51971470	     -0.71431700	     -1.32420976	     -1.81437964	     -5.13270955
